<svg enable-background="new 0 0 100 100" height="100" viewBox="0 0 100 100" width="100" xmlns="http://www.w3.org/2000/svg"><path d="m50.329 67.354 24.983 6.045v-46.907l-24.983 6.049z" fill="#8c3123"/><g fill="#e05243"><path d="m75.313 26.492 4.801 2.4v42.121l-4.801 2.399z"/><path d="m61.226 34.856-10.897-2.696v-18.16l10.897 5.448z"/><path d="m50.329 86 10.896-5.446v-15.408l-10.896 2.695z"/><path d="m61.226 57.714-10.897 1.387v-18.161l10.897 1.367z"/><path d="m50.329 67.354-24.984 6.045v-46.907l24.984 6.049z"/></g><path d="m25.345 26.492-4.799 2.4v42.121l4.799 2.399z" fill="#8c3123"/><path d="m39.435 34.856 10.894-2.696v-18.16l-10.894 5.448z" fill="#8c3123"/><path d="m50.329 86-10.895-5.446v-15.408l10.895 2.695z" fill="#8c3123"/><path d="m39.435 57.714 10.894 1.387v-18.161l-10.894 1.367z" fill="#8c3123"/><path d="m61.226 34.856-10.897 1.986-10.894-1.986 10.894-2.696z" fill="#5e1f18"/><path d="m61.226 65.145-10.897-1.999-10.894 1.999 10.894 2.713z" fill="#f2b0a9"/></svg>